<?xml version="1.0" encoding="utf-8"?>
<!-- Generator: Adobe Illustrator 22.1.0, SVG Export Plug-In . SVG Version: 6.00 Build 0)  -->
<svg version="1.1" id="Warstwa_1" xmlns="http://www.w3.org/2000/svg" xmlns:xlink="http://www.w3.org/1999/xlink" x="0px" y="0px"
	 width="700.3px" height="207.6px" viewBox="0 0 700.3 207.6" style="enable-background:new 0 0 700.3 207.6;" xml:space="preserve"
	>
<style type="text/css">
	.st0{fill:none;stroke:#566CB2;stroke-width:15;stroke-linejoin:round;stroke-miterlimit:10;}
	.st1{fill:#0E009E;}
	.st2{fill:#FCBE46;}
	.st3{fill:#FDBD46;}
</style>
<path class="st0" d="M154.1,79"/>
<polygon class="st1" points="60,100 20,60 60,20 70.6,30.6 41.2,60 70.6,89.4 "/>
<g>
	<path class="st2" d="M160,80h-15c0-35.8-29.1-65-65-65V0C124.1,0,160,35.9,160,80z"/>
	<path class="st2" d="M80,160c-44.1,0-80-35.9-80-80h15c0,35.8,29.1,65,65,65V160z"/>
</g>
<polygon class="st1" points="100,140 89.4,129.4 118.7,100 89.4,70.6 100,60 140,100 "/>
<g>
	<path class="st1" d="M313.3,57.4c-9.7,0-16.8,3.5-21.3,10.6V31.7h-14.8v96.2H292V91c0-6.7,1.6-11.7,4.8-14.9
		c3.2-3.2,7.4-4.9,12.6-4.9c4.8,0,8.5,1.4,11.3,4.1c2.8,2.8,4.1,6.7,4.1,11.8v40.7h14.8V85.7c0-8.8-2.4-15.7-7.3-20.8
		C327.5,59.9,321.2,57.4,313.3,57.4z"/>
	<path class="st1" d="M388,57.4c-10.1,0-18.6,3.5-25.7,10.4c-7.1,7-10.6,15.5-10.6,25.7c0,10.2,3.5,18.7,10.6,25.7
		c7,7,15.6,10.4,25.7,10.4c10.2,0,18.8-3.5,25.8-10.4c7-7,10.5-15.5,10.5-25.7c0-10.2-3.5-18.7-10.5-25.7
		C406.8,60.9,398.2,57.4,388,57.4z M403.3,109c-4.1,4.1-9.2,6.2-15.2,6.2c-6,0-11.1-2.1-15.2-6.2c-4.1-4.1-6.2-9.3-6.2-15.5
		c0-6.2,2.1-11.4,6.2-15.5c4.1-4.1,9.2-6.2,15.2-6.2c6.1,0,11.1,2.1,15.2,6.2c4.1,4.1,6.2,9.3,6.2,15.5
		C409.5,99.8,407.4,104.9,403.3,109z"/>
	<path class="st1" d="M476.6,57.4c-10.4,0-18.4,3.9-24,11.7v-9.9h-14.8V161h14.8v-42.9c5.6,7.7,13.6,11.5,24,11.5
		c9.4,0,17.5-3.5,24.2-10.4c6.7-7,10-15.5,10-25.7c0-10.1-3.3-18.6-10-25.6C494.1,60.9,486.1,57.4,476.6,57.4z M489.8,109.3
		c-4.1,4.2-9.3,6.2-15.5,6.2c-6.2,0-11.4-2.1-15.5-6.2c-4.1-4.2-6.2-9.4-6.2-15.7c0-6.3,2.1-11.6,6.2-15.7c4.1-4.2,9.3-6.2,15.5-6.2
		c6.2,0,11.4,2.1,15.5,6.2c4.1,4.2,6.2,9.4,6.2,15.7C496,99.8,493.9,105.1,489.8,109.3z"/>
	<path class="st1" d="M611.4,111.9l-20.5-52.7h-16.2l29.1,70.3l-0.7,4.2c-1.8,4.8-4.2,8.3-7,10.5c-2.8,2.2-6.6,3.2-11.3,2.9V161
		c15.8,0.9,26.9-7.5,33.5-25.3l26.4-76.6H629L611.4,111.9z"/>
	<path class="st1" d="M696.5,96.8c-2.5-3.1-5.6-5.2-9.3-6.4c-3.7-1.1-7.4-2.3-10.9-3.4c-3.5-1.1-6.6-2.3-9.1-3.6
		c-2.5-1.3-3.8-3.1-3.8-5.4c0-2.3,1-4.1,2.9-5.4c0.2-0.1,0.3-0.2,0.5-0.3c1.8-1,4-1.5,6.6-1.5c3.9,0,7,1,9.4,3c0,0,0,0,0.1,0.1
		c1.5,1.3,2.8,2.7,4,4.2l2.7-2.7l7.2-7.1l0,0l0,0c-2.1-2.9-4.8-5.3-8.1-7.1c-4.4-2.5-9.5-3.8-15.2-3.8c-0.1,0-0.1,0-0.2,0
		c-0.3,0-0.6,0-0.9,0c-0.2,0-0.4,0-0.6,0c0,0-0.1,0-0.1,0l0,0h0c-6.3,0.3-11.7,2.2-16,5.7c-4.8,3.8-7.2,8.9-7.2,15.2
		c0,4.6,1.2,8.3,3.8,11.3c2.5,3,5.7,5,9.4,6.2c3.7,1.1,7.4,2.3,10.9,3.4c3.6,1.1,6.6,2.3,9.1,3.7c2.5,1.4,3.8,3.2,3.8,5.4
		c0,4.2-2.6,6.6-7.7,7.4c-1.2,0.2-2.5,0.3-4,0.3c-4.3,0-7.8-1-10.5-3.1c-2.2-1.7-4-3.7-5.4-5.9l-10.1,10.2c2.1,3.4,5,6.1,8.7,8.2
		c4.9,2.8,10.7,4.2,17.4,4.2c7.7,0,14.1-1.9,19.2-5.6c5.1-3.8,7.6-8.9,7.6-15.5C700.3,103.8,699,99.9,696.5,96.8z"/>
	<path class="st1" d="M559.8,90.4c-3.7-1.1-7.4-2.3-10.9-3.4c-3.6-1.1-6.6-2.3-9.1-3.6c-2.5-1.3-3.8-3.1-3.8-5.4
		c0-2.3,1-4.1,2.9-5.4c0.2-0.1,0.3-0.2,0.5-0.3c1.8-1,4.1-1.5,6.6-1.5c3.9,0,7,1,9.4,3c0,0,0.1,0,0.1,0.1c1.5,1.3,2.8,2.7,3.9,4.2
		l9.9-9.9c-2.1-2.9-4.8-5.3-8.1-7.1c-4.4-2.5-9.5-3.8-15.2-3.8c-0.4,0-0.7,0-1.1,0c-0.3,0-0.5,0-0.8,0c-6.3,0.3-11.7,2.2-16,5.7
		c-4.8,3.8-7.2,8.9-7.2,15.2c0,4.6,1.2,8.3,3.8,11.3c2.5,3,5.6,5,9.4,6.2c3.7,1.1,7.4,2.3,10.9,3.4c3.6,1.1,6.6,2.3,9.1,3.7
		c2.5,1.4,3.8,3.2,3.8,5.4c0,4.2-2.6,6.6-7.7,7.4c-1.2,0.2-2.5,0.3-4,0.3c-4.4,0-7.9-1-10.5-3.1c-2.2-1.7-4-3.7-5.4-5.9L520,117.2
		c2.1,3.4,5,6.1,8.7,8.2c4.9,2.8,10.7,4.2,17.4,4.2c7.7,0,14.1-1.9,19.2-5.6c5.1-3.8,7.6-8.9,7.6-15.5c0-4.7-1.2-8.6-3.8-11.7
		C566.7,93.6,563.6,91.5,559.8,90.4z"/>
	<path class="st1" d="M255.5,81.8c-0.6-0.4-1.3-0.8-1.9-1.2c-0.6-0.4-1.4-0.9-2.2-1.3c0,0,0,0-0.1,0c-1.7-0.9-3.3-1.7-4.9-2.3
		c-2.9-1.1-6.6-2.4-11-4.1c-0.6-0.2-1.2-0.4-1.8-0.5c-0.4-0.2-0.9-0.3-1.4-0.5c-5.1-1.5-9.1-3-12-4.5c-0.4-0.2-0.8-0.4-1.1-0.6
		c-0.7-0.4-1.3-0.8-1.8-1.1c-2.8-2-4.2-4.8-4.2-8.3c0-3.7,1.4-6.6,4.1-8.7c0.7-0.6,1.5-1.1,2.4-1.5c2.4-1.2,5.2-1.8,8.6-1.8
		c3.9,0,7.3,0.8,10.3,2.3c0,0,0,0,0,0c1,0.5,1.9,1.2,2.8,1.9c0.1,0.1,0.2,0.2,0.3,0.3c0.9,0.7,1.7,1.6,2.5,2.5c1.4,1.5,4,4.9,4,5
		l10.9-10.9c-2.8-4.4-6.4-8.1-10.8-10.9c-0.8-0.5-1.7-1-2.5-1.5c-0.3-0.2-0.6-0.3-1-0.5c-5-2.5-10.7-3.8-17-3.8
		c-8.5,0-15.8,2.5-21.8,7.5c-6,5-9.1,11.8-9.1,20.3c0,4.3,0.8,8.1,2.3,11.3c1.6,3.2,3.9,5.9,7.1,8c0.9,0.6,1.8,1.2,2.7,1.7
		c0.1,0.1,0.2,0.1,0.3,0.2c0.4,0.2,0.8,0.5,1.2,0.7c0.1,0.1,0.3,0.1,0.4,0.2c0.3,0.2,0.6,0.3,0.9,0.4c1.4,0.7,2.7,1.3,4,1.8
		c2.9,1.1,6.6,2.4,11,4.1c0.9,0.3,1.9,0.6,2.7,0.8c0,0,0.1,0,0.2,0.1c0.2,0.1,0.5,0.2,0.8,0.2c6.2,2,10.7,3.9,13.4,5.6
		c3.2,2.1,4.8,5.1,4.8,9c0,3.7-1.5,6.8-4.5,9.1c-0.1,0.1-0.2,0.1-0.2,0.2c0,0,0,0-0.1,0c-3,2.2-7.3,3.3-13.1,3.3
		c-2.2,0-4.2-0.2-6.1-0.5c-4.1-0.8-7.7-2.3-10.5-4.8c-0.6-0.5-1.2-1.1-1.8-1.6c0,0-0.1-0.1-0.1-0.1c-0.7-0.7-1.3-1.4-2-2.2
		c-1.5-1.9-2.9-4-4-6.2L195,110.1c2.7,5.4,6.6,9.8,11.8,13.2c0.9,0.6,1.8,1.1,2.8,1.6c0.4,0.2,0.8,0.4,1.2,0.6
		c0.5,0.2,0.9,0.4,1.4,0.6c5.3,2.3,11.3,3.4,18.2,3.4c10.2,0,18.4-2.5,24.7-7.6c0.2-0.2,0.4-0.3,0.6-0.5c0.1-0.1,0.2-0.1,0.3-0.2
		c6-5,9.1-11.8,9.1-20.3c0-4.3-0.8-8.1-2.3-11.3C261,86.6,258.6,83.9,255.5,81.8z"/>
</g>
<g>
	<path class="st3" d="M195.4,206.7V167h26.2v8h-17.4v8.2H220v7.8h-15.8v15.8H195.4z"/>
	<path class="st3" d="M227.6,206.7V178h8.5v3.9c1.3-2.9,4.4-4.6,8.3-4.6c0.6,0,1.3,0.1,2.2,0.2v8c-0.9-0.2-1.8-0.3-2.9-0.3
		c-4.8,0-7.7,2.7-7.7,7.5v14H227.6z"/>
	<path class="st3" d="M273,181.7V178h8.5v28.7H273v-3.8c-0.9,2.5-4.2,4.3-8.6,4.3c-4,0-7.5-1.4-10.2-4.3c-2.7-2.9-4-6.4-4-10.6
		c0-4.2,1.4-7.7,4-10.5c2.7-2.9,6.2-4.3,10.2-4.3C268.7,177.5,272.1,179.2,273,181.7z M271.3,197.5c1.5-1.4,2.2-3.1,2.2-5.1
		c0-2-0.7-3.7-2.2-5.1c-1.4-1.4-3.2-2.1-5.3-2.1c-2.1,0-3.8,0.7-5.2,2.1c-1.4,1.4-2.1,3.1-2.1,5.1c0,2,0.7,3.7,2.1,5.1
		c1.4,1.4,3.1,2.1,5.2,2.1C268.1,199.5,269.8,198.8,271.3,197.5z"/>
	<path class="st3" d="M289,206.7V178h8.5v3.6c1.1-2.5,4-4.2,7.5-4.2c3.9,0,6.5,1.5,7.8,4.6c1.6-3,4.8-4.6,9.6-4.6
		c6.6,0,10.2,4.4,10.2,11.9v17.4h-8.5v-16.4c0-3.4-1.5-5.4-4.3-5.4c-2.8,0-4.8,2.3-4.8,5.7v16.1h-8.5v-16.4c0-3.4-1.5-5.4-4.3-5.4
		c-2.7,0-4.7,2.3-4.7,5.7v16.1H289z"/>
	<path class="st3" d="M338.7,192.3c0-4.5,1.5-8.2,4.4-10.9c2.9-2.8,6.7-4.2,11.2-4.2c4.4,0,7.9,1.4,10.7,4.2
		c2.7,2.8,4.1,6.2,4.1,10.4c0,1-0.1,1.9-0.1,2.7h-21.7c0.2,3.4,3.1,5.6,7.6,5.6c2.7,0,5-0.9,7-2.8l5,4.7c-3.4,3.5-7.5,5.2-12.4,5.2
		c-4.7,0-8.5-1.4-11.4-4c-2.9-2.7-4.3-6.3-4.3-10.8V192.3z M360.5,189c0-2.7-2.8-4.8-6.2-4.8c-3.7,0-6.7,2.1-7,4.8H360.5z"/>
	<path class="st3" d="M380.4,206.7l-9.1-28.7h7.9l5.1,16l4.9-16h6.6l5,16l5.1-16h7.9l-9.1,28.7h-7l-5.1-16.4l-5,16.4H380.4z"/>
	<path class="st3" d="M442.8,181.6c3.1,2.9,4.7,6.5,4.7,10.8c0,4.3-1.5,7.9-4.7,10.8c-3.1,2.9-6.9,4.4-11.3,4.4
		c-4.4,0-8.2-1.5-11.3-4.4c-3.1-3-4.6-6.6-4.6-10.8c0-4.3,1.5-7.9,4.6-10.8c3.1-3,6.9-4.4,11.3-4.4
		C435.9,177.1,439.6,178.6,442.8,181.6z M426.2,197.7c1.4,1.4,3.2,2.2,5.3,2.2c2.1,0,3.9-0.7,5.3-2.2c1.4-1.5,2.2-3.2,2.2-5.4
		c0-2.1-0.7-3.9-2.2-5.3c-1.4-1.5-3.2-2.2-5.3-2.2c-2.1,0-3.9,0.7-5.3,2.2c-1.4,1.4-2.2,3.2-2.2,5.3
		C424,194.5,424.8,196.3,426.2,197.7z"/>
	<path class="st3" d="M453.8,206.7V178h8.5v3.9c1.3-2.9,4.4-4.6,8.3-4.6c0.6,0,1.3,0.1,2.2,0.2v8c-0.9-0.2-1.8-0.3-2.9-0.3
		c-4.8,0-7.7,2.7-7.7,7.5v14H453.8z"/>
	<path class="st3" d="M479.1,206.7V167h8.5v21.9L497,178h9.9l-11.5,13l12.4,15.7h-9.6l-8.3-10.6l-2.4,2.6v8H479.1z"/>
</g>
</svg>
